# xmcd
#
# Track frame offsets:
#	150
#	23595
#	42802
#	58240
#	78457
#	97042
#	116363
#	128713
#	147455
#	160991
#	184044
#	210048
#	231228
#	243704
#	266693
#	277945
#	296652
#
# Disc length: 4342 seconds
#
# Revision: 0
# Processed by: cddbd v1.4PL0 Copyright (c) Steve Scherf et al.
# Submitted via: audiograbber 1.80
#
DISCID=f110f411
DTITLE=Sinead O`Connor - Best
DYEAR=1900
DGENRE=
TTITLE0=Nothing Compares 2 U
TTITLE1=Jealous
TTITLE2=Now Insensitive
TTITLE3=Just Like U Said It Would B
TTITLE4=Jerusalem
TTITLE5=Dancing Lessons
TTITLE6=I Want To Be Loved By You
TTITLE7=Streets of London
TTITLE8=No Man's Woman
TTITLE9=Fire On Babylon
TTITLE10=Thank You For Hearing Me
TTITLE11=Three Babies
TTITLE12=Red Football
TTITLE13=House of the Rising Sun
TTITLE14=Why Don't You Do Right?
TTITLE15=The State I'm In
TTITLE16=Guide Me God
EXTD=
EXTT0=
EXTT1=
EXTT2=
EXTT3=
EXTT4=
EXTT5=
EXTT6=
EXTT7=
EXTT8=
EXTT9=
EXTT10=
EXTT11=
EXTT12=
EXTT13=
EXTT14=
EXTT15=
EXTT16=
PLAYORDER=
